<?xml version="1.0" encoding="UTF-8" standalone="no"?>
<!DOCTYPE svg PUBLIC "-//W3C//DTD SVG 20010904//EN"
              "http://www.w3.org/TR/2001/REC-SVG-20010904/DTD/svg10.dtd">

<svg xmlns="http://www.w3.org/2000/svg"
     width="8.86111in" height="11.4861in"
     viewBox="0 0 638 827">
  <path id="Selection #2"
        fill="none" stroke="black" stroke-width="1"
        d="M 208.00,38.23
           C 208.00,38.23 221.00,38.23 221.00,38.23
             228.26,38.01 234.35,38.81 241.00,41.93
             245.63,44.11 249.09,45.72 253.00,49.18
             266.60,61.25 267.19,77.29 267.00,94.00
             266.95,97.90 266.05,105.26 265.08,109.00
             262.42,119.21 255.12,137.55 255.00,147.00
             254.93,153.08 254.19,162.91 261.04,165.92
             263.34,166.93 265.10,166.12 266.96,164.68
             272.66,160.24 272.99,154.59 273.00,148.00
             273.00,148.00 273.00,140.00 273.00,140.00
             273.00,140.00 270.09,114.00 270.09,114.00
             270.09,114.00 270.09,101.00 270.09,101.00
             270.13,90.22 273.33,77.01 281.30,69.33
             293.35,57.72 314.21,58.62 322.59,74.00
             326.78,81.71 326.10,89.55 326.00,98.00
             325.88,107.57 322.59,118.02 319.44,127.00
             316.59,135.10 314.22,149.44 314.99,158.04
             315.33,161.88 318.29,170.63 323.00,164.73
             327.32,159.31 326.93,149.50 327.00,143.00
             327.00,143.00 327.96,132.00 327.96,132.00
             328.75,113.95 330.09,89.01 354.00,88.04
             358.07,87.87 362.24,88.32 366.00,89.96
             368.74,91.16 371.67,93.24 373.83,95.30
             386.23,107.17 381.10,119.73 375.43,133.00
             375.43,133.00 365.42,158.00 365.42,158.00
             363.25,165.45 361.01,174.42 367.39,180.71
             369.69,182.98 373.77,184.06 374.52,179.88
             374.52,179.88 373.00,161.00 373.00,161.00
             373.11,151.26 375.97,131.79 384.09,125.65
             397.09,115.82 421.71,125.50 422.00,149.00
             422.18,163.93 421.42,167.95 415.93,182.00
             412.69,190.29 407.73,194.62 407.09,205.00
             406.90,208.19 407.22,212.23 409.51,214.69
             412.55,217.94 418.46,217.47 420.96,213.77
             423.70,209.70 420.59,199.03 420.17,194.00
             419.15,181.85 424.70,166.11 436.00,160.24
             439.21,158.57 442.42,158.02 446.00,158.03
             461.88,158.05 467.48,175.73 466.96,189.00
             466.96,189.00 464.39,211.00 464.39,211.00
             464.39,211.00 462.09,222.00 462.09,222.00
             462.09,222.00 462.09,234.00 462.09,234.00
             462.02,247.26 467.81,261.44 471.56,274.00
             471.56,274.00 476.28,294.00 476.28,294.00
             477.38,299.27 479.20,306.65 478.82,312.00
             476.86,339.48 461.77,363.75 454.69,390.00
             454.69,390.00 450.60,410.00 450.60,410.00
             450.60,410.00 447.31,425.00 447.31,425.00
             447.31,425.00 442.54,456.00 442.54,456.00
             442.54,456.00 440.09,466.00 440.09,466.00
             440.09,466.00 435.76,490.00 435.76,490.00
             435.76,490.00 433.24,499.00 433.24,499.00
             433.24,499.00 428.71,520.00 428.71,520.00
             423.08,540.76 417.80,561.67 414.73,583.00
             413.18,593.73 411.02,604.08 411.00,615.00
             411.00,615.00 411.00,639.00 411.00,639.00
             411.00,639.00 412.00,655.00 412.00,655.00
             412.16,689.32 412.74,713.12 394.65,744.00
             382.89,764.08 362.83,779.45 341.00,787.14
             341.00,787.14 330.00,790.15 330.00,790.15
             330.00,790.15 321.00,792.69 321.00,792.69
             311.31,794.54 299.01,794.11 289.00,794.00
             279.77,793.89 272.64,791.44 264.00,788.66
             256.26,786.16 248.13,781.86 241.58,777.05
             234.11,771.56 229.14,767.37 223.36,760.00
             210.16,743.18 202.03,715.29 202.00,694.00
             202.00,694.00 202.00,661.00 202.00,661.00
             202.13,650.22 204.17,639.61 205.70,629.00
             205.70,629.00 210.00,574.00 210.00,574.00
             210.00,574.00 210.00,546.00 210.00,546.00
             210.00,546.00 209.04,534.00 209.04,534.00
             209.04,534.00 209.04,524.00 209.04,524.00
             209.04,524.00 208.09,514.00 208.09,514.00
             208.09,514.00 205.82,482.00 205.82,482.00
             205.82,482.00 204.17,474.00 204.17,474.00
             204.17,474.00 199.73,439.00 199.73,439.00
             199.73,439.00 196.61,424.00 196.61,424.00
             196.61,424.00 184.80,375.00 184.80,375.00
             184.80,375.00 171.11,328.00 171.11,328.00
             171.11,328.00 167.81,316.00 167.81,316.00
             166.09,307.54 164.68,298.61 164.00,290.00
             164.00,290.00 164.00,281.00 164.00,281.00
             164.00,281.00 163.10,274.00 163.10,274.00
             163.10,274.00 164.04,265.00 164.04,265.00
             164.04,265.00 164.04,256.00 164.04,256.00
             164.86,248.79 166.94,236.94 168.91,230.00
             172.84,216.09 178.17,199.37 178.00,185.00
             178.00,185.00 173.08,158.00 173.08,158.00
             173.08,158.00 169.45,138.00 169.45,138.00
             168.35,132.48 167.03,122.55 167.00,117.00
             167.00,117.00 167.00,95.00 167.00,95.00
             167.03,75.57 176.29,53.21 194.00,43.71
             199.66,40.67 201.73,39.86 208.00,38.23 Z" />
</svg>
